<?xml version="1.0" encoding="UTF-8"?>
<svg version="1.1" xmlns="http://www.w3.org/2000/svg" width="2412" height="2411">
<path d="M0 0 C3.53020194 0.00545087 7.06038837 -0.00092842 10.59058865 -0.0056737 C16.78044448 -0.01241244 22.97026499 -0.01183121 29.16012152 -0.00630661 C38.42656297 0.00192635 47.69297611 -0.00149269 56.95941825 -0.00707189 C72.75730918 -0.01624641 88.5551872 -0.01598433 104.35307928 -0.01051014 C120.35332862 -0.00499966 136.35356948 -0.00385333 152.35381933 -0.00798481 C153.36596167 -0.00824315 154.378104 -0.0085015 155.42091732 -0.00876767 C159.54349399 -0.00983426 163.66607064 -0.01093168 167.78864729 -0.01206822 C206.15175146 -0.02263692 244.51484994 -0.0233687 282.87795492 -0.01777332 C284.01382872 -0.01760773 285.14970251 -0.01744214 286.31999673 -0.01727153 C287.4576952 -0.01710567 288.59539368 -0.01693981 289.76756787 -0.01676892 C324.44033022 -0.01172084 359.11309023 -0.01042058 393.78585287 -0.01281421 C396.1084825 -0.01296917 398.43111213 -0.01312348 400.75374176 -0.01327715 C410.08763197 -0.0138981 419.42152218 -0.01453543 428.75541239 -0.01519668 C454.84684277 -0.01703062 480.93827315 -0.01817188 507.02970358 -0.01876896 C508.21780544 -0.01879625 509.4059073 -0.01882354 510.63001224 -0.01885166 C548.48314254 -0.01967011 586.33627202 -0.01741698 624.18940207 -0.0130698 C626.03076383 -0.01285905 626.03076383 -0.01285905 627.90932482 -0.01264405 C647.84383019 -0.0103542 667.77833554 -0.00791525 687.71284089 -0.0054637 C766.77340485 0.00424883 845.83396204 0.00379803 924.89452597 -0.00592487 C944.81902039 -0.00836729 964.74351481 -0.0107894 984.66800925 -0.0130698 C985.89486422 -0.01321069 987.1217192 -0.01335159 988.3857516 -0.01349676 C1026.19973708 -0.01780968 1064.01372201 -0.01963757 1101.82770773 -0.01876896 C1103.01493506 -0.01874179 1104.20216239 -0.01871462 1105.42536631 -0.01868663 C1131.48790044 -0.01806164 1157.55043452 -0.01679432 1183.61296859 -0.01494795 C1192.93847063 -0.01428968 1202.26397267 -0.01366351 1211.58947471 -0.01304653 C1213.90937671 -0.01289175 1216.2292787 -0.01273429 1218.5491807 -0.01257413 C1253.21192632 -0.01018778 1287.87466929 -0.01221823 1322.53741459 -0.01727153 C1324.24122528 -0.01751991 1324.24122528 -0.01751991 1325.97945639 -0.01777332 C1327.68011838 -0.01802137 1327.68011838 -0.01802137 1329.41513718 -0.01827442 C1367.66848029 -0.02379278 1405.92181657 -0.02175775 1444.1751587 -0.01121183 C1448.28463645 -0.01010714 1452.39411421 -0.00903373 1456.50359198 -0.00798481 C1458.01637612 -0.00759419 1458.01637612 -0.00759419 1459.55972156 -0.00719567 C1475.5154223 -0.00325411 1491.47111456 -0.00599394 1507.42681454 -0.01152282 C1523.12375846 -0.01681925 1538.82068809 -0.01494556 1554.5176302 -0.00549464 C1563.71428767 -0.00016834 1572.91090588 -0.00024959 1582.10756145 -0.00845784 C1588.2254265 -0.01336704 1594.34326117 -0.01094773 1600.46112257 -0.00272413 C1603.92260589 0.0017288 1607.38401143 0.00322917 1610.84549109 -0.00435716 C1669.22193311 -0.10543968 1726.6398297 12.09228469 1779.42870566 37.25481732 C1780.1994039 37.622039 1780.97010214 37.98926068 1781.76415488 38.36761029 C1785.72813895 40.27480172 1789.65221125 42.24854016 1793.55272909 44.28216107 C1795.49559576 45.28949849 1797.44955033 46.27269242 1799.40526816 47.25481732 C1822.29016949 58.88881323 1843.86405571 73.65538921 1863.42870566 90.25481732 C1864.46060476 91.11367539 1865.49318993 91.97170964 1866.52636191 92.82903607 C1882.91042891 106.47832266 1899.30448005 121.03611293 1912.50683066 137.83684857 C1914.31564889 140.1125772 1916.20902965 142.24328859 1918.17870566 144.37981732 C1935.63330829 163.90413568 1949.54459381 186.55675635 1962.42870566 209.25481732 C1962.84458945 209.98587689 1963.26047324 210.71693646 1963.68895956 211.47014935 C1992.87047067 263.29269882 2010.67747821 326.89049904 2010.55635616 386.49923308 C2010.55883232 388.25100067 2010.55883232 388.25100067 2010.56135852 390.03815751 C2010.56491046 393.25843272 2010.56404558 396.47867046 2010.56125673 399.69894524 C2010.55932182 403.22350805 2010.56322449 406.74806548 2010.56635352 410.27262677 C2010.5710537 416.46658265 2010.57205531 422.66053054 2010.57062518 428.85448791 C2010.56849994 438.12731895 2010.57212319 447.40014176 2010.57683995 456.67297153 C2010.58470608 472.47848428 2010.58780163 488.28399477 2010.58828589 504.08950932 C2010.58878844 520.10644388 2010.59143702 536.12337591 2010.59669348 552.14030964 C2010.59702361 553.15210033 2010.59735375 554.16389101 2010.59769388 555.20634201 C2010.5990439 559.32726578 2010.60040657 563.44818954 2010.60178599 567.56911329 C2010.61808503 616.34809307 2010.62447424 665.12707236 2010.62923386 713.90605439 C2010.63161755 738.19836038 2010.63532112 762.4906661 2010.63927096 786.78297188 C2010.65193541 864.71615208 2010.66271908 942.64933227 2010.66611142 1020.58251349 C2010.66627366 1024.30701933 2010.66643922 1028.03152518 2010.6666058 1031.75603102 C2010.6669396 1039.22550926 2010.66727008 1046.6949875 2010.66760036 1054.16446574 C2010.66798726 1062.90929469 2010.66837686 1071.65412365 2010.66877142 1080.39895261 C2010.66888384 1082.9017878 2010.66899526 1085.40462298 2010.66910568 1087.90745817 C2010.67265461 1168.27866554 2010.68773099 1248.64986396 2010.71104342 1329.02106791 C2010.72778887 1386.77554612 2010.74326171 1444.53002263 2010.74777838 1502.28450329 C2010.74791861 1504.06676218 2010.74791861 1504.06676218 2010.74806167 1505.8850263 C2010.75008089 1531.9706812 2010.75123679 1558.05633606 2010.75159026 1584.14199103 C2010.75172643 1593.47648188 2010.75193542 1602.81097273 2010.75218351 1612.14546358 C2010.75224507 1614.46760992 2010.75230339 1616.78975626 2010.75235846 1619.11190259 C2010.75327764 1656.08853353 2010.7632382 1693.06515513 2010.77781594 1730.041783 C2010.79244446 1767.29633737 2010.79746602 1804.55088029 2010.7893964 1841.80543703 C2010.7882811 1846.95926067 2010.78727042 1852.11308433 2010.78632208 1857.266908 C2010.78613211 1858.27715061 2010.78594215 1859.28739322 2010.78574642 1860.32824923 C2010.78301817 1876.29177908 2010.79033737 1892.25528768 2010.80189545 1908.21881291 C2010.81306407 1923.93549215 2010.81343974 1939.65214149 2010.80252526 1955.36882122 C2010.79645428 1964.56954233 2010.79845522 1973.77017293 2010.81277724 1982.97088539 C2010.82148621 1989.10043788 2010.81908333 1995.22992455 2010.80807853 2001.35947309 C2010.80216057 2004.82196801 2010.80225962 2008.28414568 2010.81276339 2011.74664982 C2010.97736674 2069.87201794 1998.46544866 2127.7298374 1973.42870566 2180.25481732 C1973.06148398 2181.02551556 1972.6942623 2181.7962138 1972.31591269 2182.59026654 C1970.40872125 2186.55425061 1968.43498282 2190.47832291 1966.40136191 2194.37884076 C1965.39402448 2196.32170742 1964.41083056 2198.27566199 1963.42870566 2200.23137982 C1949.33024614 2227.96405719 1930.69930225 2253.98145745 1909.62401816 2276.84856732 C1907.7972766 2278.85083208 1906.02740592 2280.88373434 1904.26073691 2282.93841107 C1900.04199844 2287.77092756 1895.53645779 2292.29372643 1890.99120566 2296.81731732 C1889.77980917 2298.03451458 1889.77980917 2298.03451458 1888.54394003 2299.27630169 C1883.66834186 2304.14404233 1878.6704199 2308.78537338 1873.42870566 2313.25481732 C1872.40753696 2314.14375513 1871.3866799 2315.03305113 1870.36620566 2315.92278607 C1851.21271888 2332.35097619 1830.34500623 2346.75425471 1808.42870566 2359.25481732 C1807.65575156 2359.70002728 1806.88279745 2360.14523724 1806.0864205 2360.60393841 C1746.16601693 2394.92209324 1678.62339101 2411.45191885 1609.85353971 2411.38479719 C1606.3275166 2411.3824773 1602.80149823 2411.38600994 1599.27547609 2411.38876401 C1593.08054036 2411.39280467 1586.88561303 2411.3931495 1580.69067647 2411.39105806 C1571.41651366 2411.38794427 1562.14235853 2411.39060102 1552.86819628 2411.39435677 C1537.06030282 2411.40058709 1521.25241209 2411.40206339 1505.44451758 2411.4009393 C1489.42639751 2411.39981461 1473.40827976 2411.40084976 1457.39016005 2411.40451176 C1455.87214013 2411.40485624 1455.87214013 2411.40485624 1454.32345315 2411.40520768 C1450.20161447 2411.40614933 1446.07977581 2411.40710501 1441.95793714 2411.40807887 C1398.96425557 2411.41822199 1355.9705753 2411.42128481 1312.97689267 2411.42187098 C1308.34946239 2411.42193573 1303.72203211 2411.42200367 1299.09460183 2411.42207439 C1297.94629139 2411.42209139 1296.79798094 2411.4221084 1295.61487321 2411.42212592 C1270.16667928 2411.4225344 1244.7184856 2411.42472441 1219.27029181 2411.42723023 C1208.79111863 2411.42825859 1198.31194546 2411.42924862 1187.83277228 2411.43024648 C1186.09597693 2411.43041237 1186.09597693 2411.43041237 1184.3240948 2411.4305816 C1117.97381264 2411.43690559 1051.62353064 2411.44103073 985.27324816 2411.44057305 C982.79025832 2411.44055727 980.30726848 2411.44054153 977.82427864 2411.44052584 C966.61381382 2411.44045246 955.40334899 2411.44036429 944.19288416 2411.44027196 C939.19386424 2411.44023083 934.19484432 2411.44019068 929.1958244 2411.44015064 C926.69372517 2411.44013025 924.19162593 2411.44010923 921.68952669 2411.44008758 C842.56864889 2411.43940732 763.44777556 2411.44672496 684.32689902 2411.46062787 C664.39185538 2411.46412889 644.45681173 2411.46759835 624.52176806 2411.47089226 C622.68054322 2411.47119657 622.68054322 2411.47119657 620.80212193 2411.47150703 C582.96934484 2411.47772211 545.13656811 2411.48148761 507.30379053 2411.48275025 C506.11597271 2411.4827902 504.92815489 2411.48283015 503.70434259 2411.48287131 C477.62872671 2411.48372459 451.55311084 2411.48398578 425.47749495 2411.48370093 C416.14714173 2411.48360445 406.81678852 2411.48355241 397.4864353 2411.48352221 C395.16528673 2411.48351429 392.84413816 2411.48350409 390.52298959 2411.48349158 C353.54135849 2411.48331528 316.55973122 2411.48901255 279.57810122 2411.4976454 C242.32992376 2411.50629627 205.08175161 2411.50848577 167.83357356 2411.50188408 C162.68473528 2411.5009718 157.535897 2411.50012852 152.3870587 2411.49932606 C151.37776321 2411.49916597 150.36846772 2411.49900589 149.32858751 2411.49884095 C133.35767756 2411.49648941 117.38677679 2411.50084213 101.41586856 2411.50799725 C85.70542197 2411.51489502 69.99498892 2411.51463592 54.28454263 2411.50680511 C45.07867982 2411.50242921 35.87285695 2411.5034822 26.66699746 2411.5126719 C20.54423597 2411.51823362 14.42150412 2411.51647115 8.29874488 2411.50888911 C4.83363583 2411.50479904 1.36860505 2411.50368008 -2.09649906 2411.5116398 C-17.37787189 2411.53972725 -32.39404666 2411.10253171 -47.57129434 2409.25481732 C-49.49420614 2409.02338817 -49.49420614 2409.02338817 -51.45596463 2408.78728368 C-99.9235822 2402.70635106 -145.24856931 2387.40934832 -188.57129434 2365.25481732 C-189.58401407 2364.73741986 -190.5967338 2364.2200224 -191.640142 2363.68694622 C-204.91797559 2356.82139259 -217.28546651 2348.74869116 -229.57129434 2340.25481732 C-230.2335502 2339.80251751 -230.89580606 2339.35021771 -231.57813028 2338.88421185 C-244.5219904 2330.03497913 -256.66795496 2320.03161558 -268.20020059 2309.41497357 C-270.20371715 2307.58969407 -272.23744201 2305.81700012 -274.29004434 2304.04778607 C-278.87524656 2300.0431378 -283.20718638 2295.81055174 -287.50879434 2291.50481732 C-288.696746 2290.31674481 -288.696746 2290.31674481 -289.90869669 2289.10467083 C-294.82074473 2284.14454484 -299.4082497 2279.1201259 -303.70801309 2273.61809857 C-305.55424764 2271.27643839 -307.49806467 2269.08091193 -309.50879434 2266.87981732 C-331.41821328 2242.38775567 -347.8757463 2213.45996106 -362.57129434 2184.25481732 C-362.97831583 2183.45543744 -363.38533731 2182.65605755 -363.80469278 2181.83245404 C-387.77761837 2134.49948989 -401.8070209 2077.14539234 -401.69894484 2024.02322562 C-401.70059562 2022.85676941 -401.7022464 2021.6903132 -401.7039472 2020.48850983 C-401.70749909 2017.27213644 -401.7066343 2014.05580055 -401.70384542 2010.83942759 C-401.70191047 2007.31910781 -401.7058132 2003.79879343 -401.70894221 2000.27847518 C-401.71364234 1994.09200008 -401.71464401 1987.90553297 -401.71321387 1981.71905638 C-401.71108861 1972.45742436 -401.71471189 1963.19580059 -401.71942864 1953.93416985 C-401.72729474 1938.14773846 -401.73039032 1922.36130934 -401.73087457 1906.57487614 C-401.73137713 1890.57729227 -401.73402571 1874.57971092 -401.73928217 1858.58212788 C-401.7396123 1857.57155708 -401.73994243 1856.56098628 -401.74028257 1855.51979212 C-401.74163259 1851.40383632 -401.74299525 1847.28788053 -401.74437468 1843.17192475 C-401.76067369 1794.45183107 -401.76706293 1745.73173788 -401.77182255 1697.01164195 C-401.77420624 1672.74864248 -401.77790981 1648.48564329 -401.78185964 1624.22264404 C-401.7945241 1546.38340789 -401.80530777 1468.54417175 -401.8087001 1390.70493459 C-401.80886234 1386.9849209 -401.8090279 1383.2649072 -401.80919449 1379.5448935 C-401.80952828 1372.08442476 -401.80985876 1364.62395601 -401.81018904 1357.16348727 C-401.81057594 1348.42920686 -401.81096555 1339.69492646 -401.81136011 1330.96064605 C-401.81147253 1328.46082998 -401.81158395 1325.9610139 -401.81169436 1323.46119783 C-401.81524329 1243.18699533 -401.83031966 1162.91280178 -401.85363211 1082.6386027 C-401.87037757 1024.95380753 -401.8858504 967.26901405 -401.89036707 909.58421643 C-401.89046055 908.3974757 -401.89055404 907.21073497 -401.89065036 905.98803241 C-401.89266958 879.9338045 -401.89382548 853.87957662 -401.89417894 827.82534864 C-401.89431511 818.50210183 -401.8945241 809.17885502 -401.8947722 799.85560821 C-401.89483376 797.53625929 -401.89489208 795.21691036 -401.89494714 792.89756144 C-401.89586632 755.96557574 -401.90582685 719.0335994 -401.92040463 682.10161679 C-401.93503319 644.89200623 -401.94005467 607.68240714 -401.93198509 570.47279421 C-401.93086979 565.32517074 -401.92985911 560.17754725 -401.92891077 555.02992375 C-401.9287208 554.02089663 -401.92853083 553.01186951 -401.92833511 551.97226582 C-401.92560688 536.02804088 -401.932926 520.08383723 -401.94448414 504.13961692 C-401.95565285 488.44188564 -401.95602834 472.74418429 -401.94511395 457.04645252 C-401.93904304 447.85686265 -401.9410437 438.6673634 -401.95536592 429.47778219 C-401.96407507 423.35560084 -401.96167182 417.2334854 -401.95066721 411.111308 C-401.9447494 407.65300531 -401.94484799 404.19502023 -401.95535207 400.7367083 C-402.16906792 325.36202106 -381.16266609 250.88767639 -340.57129434 187.25481732 C-340.15460489 186.59803997 -339.73791544 185.94126263 -339.30859903 185.26458294 C-327.36142001 166.56047162 -313.78208916 149.15326754 -298.83691934 132.76653607 C-296.96915892 130.69589823 -295.14293587 128.6000285 -293.32129434 126.48919232 C-289.48449494 122.09819995 -285.44571963 117.93752445 -281.32129434 113.81731732 C-280.57621622 113.07231976 -279.83113809 112.3273222 -279.06348184 111.55974896 C-274.22979047 106.77571164 -269.30892204 102.33747335 -263.95410684 98.14153607 C-261.68754828 96.34686756 -259.5709539 94.46386653 -257.44629434 92.50481732 C-204.54344676 45.21004545 -133.62505317 15.27946037 -63.94629434 4.37981732 C-62.1198942 4.09328289 -62.1198942 4.09328289 -60.25659708 3.8009599 C-40.17635418 0.84896739 -20.28266746 -0.04445238 0 0 Z " fill="#FEFEFE" transform="translate(401.571294343099,-0.25481731817126274)"/>
<path d="M0 0 C0.895979 0.08485657 1.79195801 0.16971313 2.71508789 0.25714111 C42.90918426 4.10792795 82.66801214 10.38135407 121.99768066 19.53442383 C123.88665674 19.9736456 125.77679024 20.40788101 127.66699219 20.84179688 C190.04430397 35.2840955 250.35188494 58.08487088 307.70068359 86.37597656 C310.74851969 87.87621378 313.80429538 89.35860722 316.86328125 90.8359375 C328.67461991 96.58388556 340.01695386 102.9554088 351.3125 109.65625 C356.23428752 112.57115892 361.22189579 115.33677071 366.25 118.0625 C375.27463127 123.00245836 383.84598895 128.57777001 392.40722656 134.27490234 C395.04547136 136.0302543 397.6902149 137.77547477 400.3359375 139.51953125 C421.30140649 153.37553636 441.56946098 168.02577219 461.26464844 183.63232422 C463.04664867 185.03676503 464.83825925 186.42804931 466.6328125 187.81640625 C472.83108672 192.62192217 478.81848976 197.52397921 484.59375 202.83984375 C487.05802083 205.05208688 489.59996455 207.12127684 492.1875 209.1875 C498.82923576 214.56280309 504.97684722 220.43618619 511.18505859 226.29833984 C513.84529123 228.79253159 516.54842548 231.23830942 519.25 233.6875 C525.01551914 238.95505257 530.51822081 244.44028082 536 250 C538.97613974 252.98627991 541.96628184 255.95809816 544.9609375 258.92578125 C546.43234884 260.3879633 547.9037016 261.8502043 549.375 263.3125 C550.10460938 264.03373047 550.83421875 264.75496094 551.5859375 265.49804688 C555.69558351 269.58934625 559.62672963 273.76732601 563.40966797 278.16235352 C565.66895893 280.77298954 568.02178552 283.28615113 570.375 285.8125 C574.70166394 290.48987412 578.76429022 295.32593659 582.7578125 300.29296875 C585.06458769 303.07797782 587.47629147 305.72594222 589.9375 308.375 C594.8930221 313.76642451 599.3131731 319.479899 603.71582031 325.31738281 C605.43074063 327.56438487 607.19259576 329.77222357 608.95483398 331.98217773 C615.36387792 340.03237948 621.37481992 348.34552386 627.35595703 356.71630859 C628.93788528 358.91371829 630.54044336 361.09404338 632.15234375 363.26953125 C640.73656882 374.89874178 648.54068254 386.9694737 656.23583984 399.20166016 C657.70454842 401.53134984 659.18499368 403.85239118 660.67578125 406.16796875 C672.29671381 424.31654651 682.82677546 443.28257759 692.67480469 462.44384766 C694.1719014 465.33157843 695.69840935 468.20280561 697.2265625 471.07421875 C738.57660036 549.15790911 765.58146551 635.11731637 786 765 C786.13744629 766.1657959 786.27489258 767.3315918 786.41650391 768.53271484 C792.85934547 824.89811488 793.37348556 882.54796606 788 939 C787.91514343 939.895979 787.83028687 940.79195801 787.74285889 941.71508789 C779.06703893 1032.27235794 757.64174924 1121.48617268 714 1221 C713.52530273 1222.01562012 713.05060547 1223.03124023 712.56152344 1224.07763672 C709.11229635 1231.42036253 705.56894279 1238.71487553 702 1246 C701.41229852 1247.20753675 700.82490489 1248.41522337 700.23779297 1249.62304688 C692.33171764 1265.86901502 684.00100061 1281.69275996 674.68212891 1297.18701172 C673.01939642 1299.96756379 671.38611971 1302.76331508 669.76171875 1305.56640625 C661.95298806 1319.01080671 653.63693208 1332.07347635 645 1345 C644.42717285 1345.85787109 643.8543457 1346.71574219 643.26416016 1347.59960938 C636.26178928 1358.04726868 628.97430631 1368.23002378 621.34619141 1378.22900391 C619.35676529 1380.84621411 617.39937143 1383.48710183 615.4375 1386.125 C601.77220291 1404.33715905 587.29762767 1421.93519746 571.9921875 1438.79296875 C570.23806619 1440.73626001 568.52027306 1442.70359448 566.8125 1444.6875 C557.64314668 1455.19715323 547.93153067 1465.21380881 538 1475 C535.0136946 1477.97611324 532.04189654 1480.96627763 529.07421875 1483.9609375 C527.6120367 1485.43234884 526.1497957 1486.9037016 524.6875 1488.375 C523.96626953 1489.10460938 523.24503906 1489.83421875 522.50195312 1490.5859375 C518.41065375 1494.69558351 514.23267399 1498.62672963 509.83764648 1502.40966797 C507.22701046 1504.66895893 504.71384887 1507.02178552 502.1875 1509.375 C497.51012588 1513.70166394 492.67406341 1517.76429022 487.70703125 1521.7578125 C484.92202218 1524.06458769 482.27405778 1526.47629147 479.625 1528.9375 C474.23357549 1533.8930221 468.520101 1538.3131731 462.68261719 1542.71582031 C460.43552374 1544.43081038 458.22759048 1546.19272834 456.01757812 1547.95507812 C447.23428188 1554.94750756 438.14466657 1561.4910339 429 1568 C428.26813477 1568.52271484 427.53626953 1569.04542969 426.78222656 1569.58398438 C403.91501913 1585.90746339 380.30886414 1600.91200279 356 1615 C354.56769043 1615.83047852 354.56769043 1615.83047852 353.10644531 1616.67773438 C341.46574906 1623.40208156 329.7239435 1629.77211658 317.65234375 1635.6875 C314.09827009 1637.43514333 310.61256414 1639.27613285 307.14135742 1641.18188477 C232.16450545 1682.16948034 144.65429099 1706.23636044 -283.78515625 1705.140625 C-287.23204267 1704.18899665 -290.69314966 1703.36564272 -294.18261719 1702.58666992 C-305.6455583 1700.02686576 -316.79834106 1696.50982556 -328 1693 C-329.41648289 1692.56060502 -330.83313059 1692.12174075 -332.25 1691.68359375 C-335.43974425 1690.69333503 -338.62617454 1689.69332817 -341.81103516 1688.6875 C-344.3548612 1687.88854683 -346.90212158 1687.10096055 -349.44921875 1686.3125 C-358.1807149 1683.59304738 -366.77861016 1680.87109078 -375.15625 1677.17578125 C-378.52669483 1675.78223194 -381.96588451 1674.66968987 -385.4375 1673.5625 C-391.40428717 1671.64579041 -396.98644317 1669.24008598 -402.6328125 1666.52734375 C-406.30451206 1664.86187446 -410.02058511 1663.48507374 -413.8125 1662.125 C-420.67067753 1659.63260207 -427.0838045 1656.58861302 -433.56640625 1653.25390625 C-438.65761519 1650.64025615 -443.82904175 1648.20095933 -449 1645.75 C-460.11874958 1640.4626975 -471.13393951 1634.97924856 -482.13037109 1629.44287109 C-487.0824231 1626.95294194 -492.04139888 1624.47685469 -497 1622 C-497 1621.34 -497 1620.68 -497 1620 C-497.71663818 1619.72776611 -498.43327637 1619.45553223 -499.17163086 1619.17504883 C-515.16409269 1612.53096434 -530.1751753 1602.28074063 -544.52001953 1592.66064453 C-547.10855078 1590.92731223 -549.70746849 1589.21046101 -552.30859375 1587.49609375 C-573.28650559 1573.64020676 -593.56149885 1558.98053704 -613.26464844 1543.36767578 C-615.04664867 1541.96323497 -616.83825925 1540.57195069 -618.6328125 1539.18359375 C-624.83108672 1534.37807783 -630.81848976 1529.47602079 -636.59375 1524.16015625 C-639.05802083 1521.94791312 -641.59996455 1519.87872316 -644.1875 1517.8125 C-650.82923576 1512.43719691 -656.97684722 1506.56381381 -663.18505859 1500.70166016 C-665.84529123 1498.20746841 -668.54842548 1495.76169058 -671.25 1493.3125 C-677.01551914 1488.04494743 -682.51822081 1482.55971918 -688 1477 C-690.97613974 1474.01372009 -693.96628184 1471.04190184 -696.9609375 1468.07421875 C-698.43234884 1466.6120367 -699.9037016 1465.1497957 -701.375 1463.6875 C-702.46941406 1462.6056543 -702.46941406 1462.6056543 -703.5859375 1461.50195312 C-707.69558351 1457.41065375 -711.62672963 1453.23267399 -715.40966797 1448.83764648 C-717.66895893 1446.22701046 -720.02178552 1443.71384887 -722.375 1441.1875 C-726.70166394 1436.51012588 -730.76429022 1431.67406341 -734.7578125 1426.70703125 C-737.06458769 1423.92202218 -739.47629147 1421.27405778 -741.9375 1418.625 C-746.8930221 1413.23357549 -751.3131731 1407.520101 -755.71582031 1401.68261719 C-757.43074063 1399.43561513 -759.19259576 1397.22777643 -760.95483398 1395.01782227 C-767.36387792 1386.96762052 -773.37481992 1378.65447614 -779.35595703 1370.28369141 C-780.93788528 1368.08628171 -782.54044336 1365.90595662 -784.15234375 1363.73046875 C-792.73456201 1352.10397688 -800.53772189 1340.03624233 -808.23144531 1327.80712891 C-809.71504095 1325.45229972 -811.20891405 1323.10480606 -812.7109375 1320.76171875 C-824.67042578 1302.01829286 -835.43790338 1282.56792363 -845.56152344 1262.78271484 C-846.97660976 1260.04524812 -848.42340623 1257.32734273 -849.8828125 1254.61328125 C-881.18159432 1196.1934314 -903.53316986 1132.34054603 -919 1068 C-919.16522156 1067.31331238 -919.33044312 1066.62662476 -919.50067139 1065.91912842 C-930.17073199 1021.37892001 -937.23178007 976.10101586 -940.75 930.4375 C-940.80925659 929.67008484 -940.86851318 928.90266968 -940.92956543 928.11199951 C-942.62077914 905.77313065 -943.20759946 883.46223679 -943.1875 861.0625 C-943.18689575 859.80832275 -943.1862915 858.55414551 -943.18566895 857.26196289 C-943.16066592 838.08769199 -942.75689339 819.10281782 -941 800 C-940.85357475 798.37126582 -940.70725937 796.74252177 -940.56103516 795.11376953 C-939.47031235 783.06573954 -938.27117666 771.03024999 -937 759 C-936.8644873 757.71287109 -936.72897461 756.42574219 -936.58935547 755.09960938 C-932.50148067 717.00296135 -932.50148067 717.00296135 -929 710 C-920.65539477 710.77941646 -912.45435487 712.26565402 -904.21289062 713.74951172 C-902.61655653 714.03469109 -901.02017653 714.31961362 -899.42375469 714.60430145 C-895.07922365 715.37983611 -890.73535943 716.15904841 -886.39160895 716.93894148 C-881.76163034 717.76959794 -877.13105864 718.59693586 -872.50056458 719.42471313 C-863.57686024 721.02054726 -854.65374015 722.61962505 -845.73083204 724.21990454 C-838.56681296 725.50465957 -831.40255232 726.78805971 -824.23812866 728.07055664 C-761.47850214 739.30534446 -698.7280292 750.58996139 -636 762 C-636.14491882 763.05930725 -636.28983765 764.1186145 -636.43914795 765.21002197 C-636.98370392 769.19399674 -637.52595725 773.17828227 -638.06756592 777.16265869 C-638.30091989 778.87701648 -638.53487283 780.59129287 -638.76947021 782.30548096 C-640.48480715 794.84345039 -642.10965272 807.37158141 -643 820 C-643.12918823 821.71558105 -643.12918823 821.71558105 -643.26098633 823.46582031 C-644.16951098 836.38589425 -644.20004336 849.30293088 -644.1875 862.25 C-644.18689575 863.40262329 -644.1862915 864.55524658 -644.18566895 865.74279785 C-644.16077946 883.24739425 -643.86326992 900.58030204 -642 918 C-641.86577637 919.26537598 -641.73155273 920.53075195 -641.59326172 921.83447266 C-631.19037721 1017.84328234 -597.56453268 1110.76257879 -525 1212 C-524.52143555 1212.62567871 -524.04287109 1213.25135742 -523.54980469 1213.89599609 C-518.3227165 1220.70332533 -512.97492474 1227.28389092 -507.15234375 1233.59765625 C-504.97034586 1236.03309854 -502.95793947 1238.55457323 -500.9375 1241.125 C-495.08786982 1248.37232943 -488.37780243 1254.78389883 -481.73583984 1261.296875 C-478.17686563 1264.78877432 -474.6725258 1268.33282328 -471.1796875 1271.890625 C-464.20019646 1278.97452917 -457.30082214 1285.89599122 -449.46484375 1292.03515625 C-446.91177557 1294.07032787 -444.52360773 1296.22310534 -442.125 1298.4375 C-436.87974115 1303.21043696 -431.30281313 1307.4826551 -425.64697266 1311.74707031 C-424.06851104 1312.94788043 -422.50837889 1314.17267012 -420.94921875 1315.3984375 C-411.61335415 1322.72952304 -401.86590281 1329.40500297 -392 1336 C-390.9483667 1336.70576172 -390.9483667 1336.70576172 -389.87548828 1337.42578125 C-370.0672976 1350.66621884 -349.28857222 1362.32461699 -328 1373 C-327.07396973 1373.4650293 -326.14793945 1373.93005859 -325.19384766 1374.40917969 C-248.44132135 1412.67164614 -162.74699232 1431.26853077 -77.1875 1431.1875 C-76.00925659 1431.18689575 -74.83101318 1431.1862915 -73.61706543 1431.18566895 C-56.32250654 1431.16158918 -39.20839248 1430.86474924 -22 1429 C-20.74058594 1428.87109375 -19.48117187 1428.7421875 -18.18359375 1428.609375 C58.74559424 1420.6781934 133.95126289 1397.33694473 201.43017578 1359.44238281 C203.0740072 1358.51973831 204.72057423 1357.60194025 206.37060547 1356.69042969 C233.18453352 1341.87477332 258.68809016 1324.00275226 282.24267578 1304.453125 C284.76933367 1302.36384079 287.32467907 1300.31028732 289.875 1298.25 C294.25904209 1294.66126389 298.48604434 1290.92664196 302.671875 1287.109375 C304.73153033 1285.24324433 306.82388895 1283.42930212 308.9375 1281.625 C314.22429772 1277.02591581 319.08142776 1271.98474137 324 1267 C326.94473792 1264.04036459 329.91110574 1261.10420789 332.890625 1258.1796875 C339.97452917 1251.20019646 346.89599122 1244.30082214 353.03515625 1236.46484375 C355.07032787 1233.91177557 357.22310534 1231.52360773 359.4375 1229.125 C364.21043696 1223.87974115 368.4826551 1218.30281313 372.74707031 1212.64697266 C373.94788043 1211.06851104 375.17267012 1209.50837889 376.3984375 1207.94921875 C401.33273132 1177.03718217 401.33273132 1177.03718217 419 1142 C419.66 1142 420.32 1142 421 1142 C421.66 1139.69 422.32 1137.38 423 1135 C423.66 1135 424.32 1135 425 1135 C425.26047119 1134.15236084 425.52094238 1133.30472168 425.78930664 1132.43139648 C427.05931539 1128.8318859 428.63807462 1125.48805302 430.37109375 1122.09765625 C430.69408951 1121.4568663 431.01708527 1120.81607635 431.34986877 1120.15586853 C432.37525153 1118.12278391 433.40597007 1116.09247168 434.4375 1114.0625 C435.46476955 1112.03576415 436.49080247 1110.00842627 437.51441956 1107.97984314 C438.14880815 1106.72312559 438.78532949 1105.46748136 439.42442322 1104.21315002 C441.45085396 1100.2053605 443.2665439 1096.14214698 445 1092 C445.41419189 1091.01410889 445.82838379 1090.02821777 446.25512695 1089.01245117 C451.74286835 1075.79776129 457.09375408 1062.62400522 461.37768555 1048.96557617 C462.93464376 1044.04793375 464.58252598 1039.163755 466.32421875 1034.30859375 C480.72414224 993.88006956 487.88775071 949.62928355 491 907 C491.08757568 905.84467773 491.17515137 904.68935547 491.26538086 903.49902344 C492.17344259 890.59117166 492.20003144 877.6847649 492.1875 864.75 C492.18689575 863.59737671 492.1862915 862.44475342 492.18566895 861.25720215 C492.16077692 843.75082335 491.85298226 826.42206142 490 809 C489.80664062 807.14181641 489.80664062 807.14181641 489.609375 805.24609375 C481.64661423 731.0007225 459.73122401 659.78645637 373 515 C372.52143555 514.37432129 372.04287109 513.74864258 371.54980469 513.10400391 C366.3227165 506.29667467 360.97492474 499.71610908 355.15234375 493.40234375 C352.97034586 490.96690146 350.95793947 488.44542677 348.9375 485.875 C343.08786982 478.62767057 336.37780243 472.21610117 329.73583984 465.703125 C326.17686563 462.21122568 322.6725258 458.66717672 319.1796875 455.109375 C312.20019646 448.02547083 305.30082214 441.10400878 297.46484375 434.96484375 C294.91177557 432.92967213 292.52360773 430.77689466 290.125 428.5625 C284.87974115 423.78956304 279.30281313 419.5173449 273.64697266 415.25292969 C272.06851104 414.05211957 270.50837889 412.82732988 268.94921875 411.6015625 C256.63924522 401.93502674 243.60571747 393.29308064 230.5 384.75 C229.78811523 384.28408447 229.07623047 383.81816895 228.34277344 383.33813477 C225.58581881 381.55729292 223.12731321 380.04243774 220 379 C220 378.34 220 377.68 220 377 C218.35 376.67 216.7 376.34 215 376 C215 375.34 215 374.68 215 374 C214.27594971 373.72397949 213.55189941 373.44795898 212.8059082 373.16357422 C210.12000893 372.04976617 207.64757876 370.79077323 205.10546875 369.3828125 C204.1611499 368.86380371 203.21683105 368.34479492 202.24389648 367.81005859 C201.23528564 367.25398926 200.2266748 366.69791992 199.1875 366.125 C190.51374424 361.38367583 181.78143192 356.79112815 172.9375 352.375 C171.94580811 351.87887207 170.95411621 351.38274414 169.93237305 350.87158203 C165.00766334 348.42762663 160.07478359 346.11346919 155 344 C153.92621094 343.52820313 152.85242187 343.05640625 151.74609375 342.5703125 C144.68939455 339.48769302 137.6058944 336.73591699 130.328125 334.203125 C127.36622533 333.13239132 124.50787165 331.95191739 121.625 330.6875 C105.12122232 323.71777716 87.80455621 318.9427837 70.45361328 314.62304688 C67.24370398 313.80795349 64.06172577 312.90099778 60.875 312 C36.42098085 305.46251613 11.48933752 301.63705422 -13.625 298.875 C-14.40633301 298.78837097 -15.18766602 298.70174194 -15.99267578 298.61248779 C-35.63346388 296.45247572 -55.05185568 295.79533538 -74.8125 295.8125 C-76.57637558 295.81290787 -76.57637558 295.81290787 -78.37588501 295.81332397 C-95.67243177 295.83172221 -112.79111021 296.1263534 -130 298 C-131.18158691 298.12842285 -132.36317383 298.2568457 -133.58056641 298.38916016 C-140.26140945 299.1283583 -146.93536203 299.91015365 -153.60351562 300.75634766 C-156 301 -156 301 -160 301 C-165.33451101 264.57421396 -170.66814098 228.14829902 -176.00059002 191.72221106 C-176.63018842 187.42141452 -177.2597941 183.12061904 -177.8894043 178.81982422 C-178.01474781 177.96361626 -178.14009132 177.10740831 -178.26923312 176.22525465 C-180.29858031 162.36312486 -182.32851811 148.50108161 -184.35867434 134.63907027 C-186.44191174 120.41452624 -188.52451408 106.18988934 -190.60652739 91.96516609 C-191.89117448 83.18834479 -193.17631638 74.41159624 -194.46209205 65.63494021 C-195.34384395 59.61580421 -196.22497877 53.59657809 -197.10562985 47.57728094 C-197.61367084 44.10492058 -198.1219824 40.6326004 -198.63102722 37.16038704 C-199.18321181 33.39292597 -199.73436596 29.62531553 -200.28526306 25.85766602 C-200.44577005 24.76426659 -200.60627704 23.67086716 -200.77164787 22.54433441 C-201.5759453 17.03570339 -202.33376299 11.52708013 -203 6 C-135.80914143 -3.56009064 -67.64406852 -6.43881895 0 0 Z " fill="#000000" transform="translate(1282,342)"/>
<path d="M0 0 C1.07507813 0.26167969 2.15015625 0.52335938 3.2578125 0.79296875 C37.58211387 9.44575224 67.59532165 34.58917243 85.75 64.5 C94.27765839 78.97787253 102.44917515 95.92442979 103 113 C103.70890381 112.69562012 104.41780762 112.39124023 105.14819336 112.07763672 C131.12396929 101.07091622 158.58841815 92.27010531 186.59765625 88.5078125 C189.85578546 88.20139062 189.85578546 88.20139062 192 87 C194.41787045 86.62991395 196.82148678 86.30937098 199.25 86.02734375 C200.37210373 85.89574608 200.37210373 85.89574608 201.51687622 85.76148987 C246.7381846 80.5917977 291.51343439 81.96312953 336 92 C336.98645508 92.21881836 337.97291016 92.43763672 338.98925781 92.66308594 C365.95184737 98.73605887 391.38285473 108.1182884 416.1875 120.1875 C416.96346527 120.56438965 417.73943054 120.9412793 418.53890991 121.32958984 C429.66794642 126.74721786 440.55556098 132.3377366 451 139 C452.19338532 139.73929126 453.38740102 140.47756585 454.58203125 141.21484375 C468.39798892 149.82733963 481.37126217 159.74360981 494 170 C494.54462891 170.43876465 495.08925781 170.8775293 495.65039062 171.32958984 C505.10717401 179.01673197 513.74552354 187.53718914 522.375 196.125 C522.93312378 196.67785675 523.49124756 197.2307135 524.06628418 197.80032349 C531.18648468 204.86853547 537.74800554 212.13810494 544 220 C544.98181137 221.16026735 545.97023463 222.31501388 546.96875 223.4609375 C553.20004217 230.63461645 558.76904928 238.05534516 564 246 C564.42780762 246.64453125 564.85561523 247.2890625 565.29638672 247.953125 C574.14765885 261.31449798 582.40675149 274.97500567 589.9375 289.125 C590.30311035 289.81142578 590.6687207 290.49785156 591.04541016 291.20507812 C593.24118785 295.38927161 595.18687685 299.63639215 597 304 C597.77951647 305.82570511 598.55950956 307.65120675 599.33984375 309.4765625 C607.71222127 329.23191631 607.71222127 329.23191631 610.18359375 338.12109375 C610.85639468 340.4936023 611.5943125 342.8094081 612.3828125 345.14453125 C621.08073826 371.023213 625.69151288 396.94461471 629 424 C629.10675049 424.84409424 629.21350098 425.68818848 629.32348633 426.55786133 C630.40810991 436.46840111 630.2868985 446.47993188 630.3125 456.4375 C630.31545074 457.44678558 630.31840149 458.45607117 630.32144165 459.49594116 C630.33060352 473.36250635 629.80602371 487.03750681 628.1875 500.8125 C628.10472809 501.52042694 628.02195618 502.22835388 627.93667603 502.95773315 C626.15672605 517.78007148 623.53114686 532.46650081 620.125 547 C619.8667041 548.10794922 619.6084082 549.21589844 619.34228516 550.35742188 C616.58456523 562.01128559 613.64040833 573.58421609 608.953125 584.6328125 C607.88642934 587.28206484 607.04052179 589.96216768 606.1875 592.6875 C603.98562815 599.44106741 600.98506005 605.69484611 597.90283203 612.08203125 C596.92577572 614.15768143 596.0042926 616.25322115 595.0859375 618.35546875 C580.44464271 651.45981529 559.40027863 680.6324854 536 708 C535.34773438 708.76699219 534.69546875 709.53398438 534.0234375 710.32421875 C529.90156253 715.11425153 525.5064552 719.57307048 521 724 C518.47888356 726.50891749 515.97222895 729.02854967 513.4921875 731.578125 C508.25471841 736.92503374 502.92914274 741.89585236 497.0625 746.5625 C494.78854286 748.37238425 492.54424181 750.20195139 490.3125 752.0625 C471.09506794 768.02665285 450.06056766 780.91991755 428.14306641 792.83447266 C426.05409611 793.97057931 423.97034528 795.11584953 421.88671875 796.26171875 C415.08038249 799.97901899 408.28948989 803.32268735 401 806 C398.7910206 806.85249448 396.58272202 807.70675454 394.375 808.5625 C390.29013244 810.12884199 386.20397492 811.68991476 382.09765625 813.19921875 C380.53132355 813.79716699 378.9784846 814.43068458 377.43359375 815.08203125 C352.17843968 825.45409583 323.04086051 830.67485354 296 834 C295.32582031 834.09168457 294.65164063 834.18336914 293.95703125 834.27783203 C264.60805164 838.17039194 211.25308234 843.62654117 184 830 C182.40012764 829.72384942 180.794667 829.47992375 179.1875 829.25 C162.55125854 826.56738104 145.23213597 822.59850461 129.68359375 816.0625 C125.23232939 814.30013624 120.66176896 812.89238103 116.1015625 811.44140625 C83.33648774 800.35977648 52.52676598 781.71644018 25 761 C23.95457031 760.22140625 22.90914062 759.4428125 21.83203125 758.640625 C15.50894982 753.88807337 9.5201137 748.92258623 3.73046875 743.51953125 C1.64005599 741.59060961 -0.47413056 739.7322088 -2.6328125 737.8828125 C-7.50229258 733.63740453 -12.06262965 729.08786893 -16.6184082 724.51196289 C-18.06025221 723.06475615 -19.50737116 721.62297974 -20.95507812 720.18164062 C-29.24603392 711.89725023 -36.76576363 703.21316697 -44 694 C-45.16015625 692.53240234 -45.16015625 692.53240234 -46.34375 691.03515625 C-55.33558 679.57124671 -63.58014286 667.60860736 -71.10546875 655.1328125 C-72.37693298 653.03030876 -73.67165759 650.94171044 -74.98828125 648.8671875 C-79.90515656 641.09566031 -84.07850851 633.12013641 -88.0859375 624.85888672 C-89.38592738 622.21515729 -90.76375135 619.61260482 -92.125 617 C-95.25755703 610.70138266 -97.69854395 604.19424986 -100.06494141 597.58007812 C-101.13701528 594.62193799 -102.24663546 591.67892872 -103.35546875 588.734375 C-109.4351548 572.39703613 -114.18418537 556.00498507 -118 539 C-118.2578125 537.87037842 -118.515625 536.74075684 -118.78125 535.5769043 C-120.62647881 527.28090856 -121.99254594 518.98342838 -123.125 510.5625 C-123.29386719 509.36818359 -123.46273437 508.17386719 -123.63671875 506.94335938 C-125.69683229 491.88182062 -126.1865738 476.97237648 -126.18530273 461.79589844 C-126.18748101 458.90023906 -126.20568875 456.00496709 -126.22460938 453.109375 C-126.28145395 434.77661111 -124.53267617 416.83753967 -121.625 398.75 C-121.51606415 398.06588043 -121.4071283 397.38176086 -121.29489136 396.6769104 C-118.70318905 380.45965376 -114.88768183 365.04599948 -109.78662109 349.44238281 C-108.98566749 346.95549895 -108.21698904 344.46063336 -107.45703125 341.9609375 C-105.10960131 334.26996627 -102.72333741 326.83411441 -99.203125 319.58203125 C-97.86373019 316.70755084 -96.77814602 313.78996364 -95.6875 310.8125 C-91.73374256 300.34813881 -86.54584103 290.29879304 -80.8125 280.69921875 C-79.78430895 278.86282884 -79.78430895 278.86282884 -80 276 C-80.89525391 275.72349609 -80.89525391 275.72349609 -81.80859375 275.44140625 C-96.41652836 270.55762425 -109.27323308 262.88758229 -121 253 C-121.85851562 252.28199219 -122.71703125 251.56398438 -123.6015625 250.82421875 C-151.55686149 226.55191947 -170.33283753 191.8950523 -173.625 154.8125 C-176.22826111 113.69061619 -165.41855026 74.27305477 -138 43 C-119.79245981 22.75960585 -97.21811043 8.47248356 -71 1 C-70.09507812 0.7215625 -69.19015625 0.443125 -68.2578125 0.15625 C-46.20390961 -6.38793483 -22.08207412 -5.93827235 0 0 Z " fill="#4E95D9" transform="translate(954,746)"/>
<path d="M0 0 C1.07507813 0.26167969 2.15015625 0.52335938 3.2578125 0.79296875 C37.58211387 9.44575224 67.59532165 34.58917243 85.75 64.5 C97.9549934 85.22108551 105.11646989 107.93049793 106 132 C106.02723145 132.68368652 106.05446289 133.36737305 106.08251953 134.07177734 C106.86258869 156.38960508 103.45238767 178.64708727 94 199 C93.22849609 200.66482422 93.22849609 200.66482422 92.44140625 202.36328125 C81.47693333 225.12785666 65.37422376 246.13237951 44 260 C42.97261719 260.67546875 41.94523438 261.3509375 40.88671875 262.046875 C10.14771947 281.63148292 -26.18610246 288.95492871 -61.96582031 281.42773438 C-64.02259656 280.99524854 -66.08388692 280.59665242 -68.1484375 280.203125 C-77.69446203 278.30553797 -77.69446203 278.30553797 -80 276 C-81.50458791 275.43394646 -83.02967896 274.92191825 -84.5625 274.4375 C-98.12743155 269.61954921 -110.04230486 262.23912901 -121 253 C-121.85851562 252.28199219 -122.71703125 251.56398438 -123.6015625 250.82421875 C-151.55686149 226.55191947 -170.33283753 191.8950523 -173.625 154.8125 C-176.22826111 113.69061619 -165.41855026 74.27305477 -138 43 C-119.79245981 22.75960585 -97.21811043 8.47248356 -71 1 C-70.09507812 0.7215625 -69.19015625 0.443125 -68.2578125 0.15625 C-46.20390961 -6.38793483 -22.08207412 -5.93827235 0 0 Z " fill="#61CBF3" transform="translate(954,746)"/>
</svg>
